# xmcd
#
# Track frame offsets: 
#        150
#        20145
#        34594
#        45122
#        59937
#        75488
#        89443
#        111974
#        127697
#        143171
#        162009
#        178567
#        188662
#
# Disc length: 2727 seconds
#
# Revision: 0
# Processed by: cddbd v1.5.1PL0 Copyright (c) Steve Scherf et al.
# Submitted via: ExactAudioCopy v0.95a5
#
DISCID=a00aa50d
DTITLE=World's Greatest Fishing Band - Papa Was A Fishin' Man Disk 2
DYEAR=2003
DGENRE=Country
TTITLE0=Everyday Heros
TTITLE1=Hey Bubba! (She Fishes Better Than You)
TTITLE2=The Steelhead Are Running
TTITLE3=Nothin' Fancy
TTITLE4=Rodn' And Reelin'
TTITLE5=Where Mr. Nelson Stayed
TTITLE6=Pro For A Day
TTITLE7=Runnin' Wide Open
TTITLE8=Bottom Of The Lake
TTITLE9=Fishin' Train
TTITLE10=Fishin' Shoes
TTITLE11=Fishin' Off The Railroad Track
TTITLE12=These Things Count
EXTD=
EXTT0=
EXTT1=
EXTT2=
EXTT3=
EXTT4=
EXTT5=
EXTT6=
EXTT7=
EXTT8=
EXTT9=
EXTT10=
EXTT11=
EXTT12=
PLAYORDER=
